<?xml version='1.0' encoding='utf-8'?>
<!DOCTYPE svg PUBLIC '-//W3C//DTD SVG 1.1 Basic//EN' 'http://www.w3.org/Graphics/SVG/1.1/DTD/svg11-basic.dtd'>
<!-- Garden Gnome Software - Skin Buttons -->
<svg version="1.1" xmlns:xlink="http://www.w3.org/1999/xlink" baseProfile="basic" xml:space="preserve" width="32px" height="32px" x="0px" viewBox="0 0 32 32" y="0px" xmlns="http://www.w3.org/2000/svg" id="Layer_1">
 <g stroke="#3C3C3C" transform="translate(16,16) scale(1.1) translate(-16,-16)" opacity="0.4" stroke-width="1.5">
  <path d="M28.149,7.034c-0.223-0.223-0.531-0.351-0.846-0.351H4.697c-0.315,0-0.624,0.127-0.846,0.351&#xd;&#xa;&#x9;&#x9;&#x9;C3.628,7.257,3.5,7.564,3.5,7.88v8.118c0,0.001,0,0.002,0,0.002v8.12c0,0.315,0.127,0.623,0.35,0.846&#xd;&#xa;&#x9;&#x9;&#x9;c0.223,0.224,0.531,0.351,0.846,0.351H16c0,0,0.001,0,0.001,0h11.302c0.319,0,0.62-0.124,0.846-0.351&#xd;&#xa;&#x9;&#x9;&#x9;c0.227-0.226,0.351-0.526,0.351-0.846V7.88C28.5,7.564,28.372,7.257,28.149,7.034z M14.804,22.924H5.893v-5.728h8.911V22.924z&#xd;&#xa;&#x9;&#x9;&#x9; M26.107,22.924h-8.911V16c0-0.315-0.128-0.623-0.35-0.846c-0.223-0.223-0.531-0.351-0.846-0.351H5.893V9.077h20.215V22.924z&#xd;&#xa;&#x9;&#x9;&#x9; M18.682,15.135c0.178,0,0.357-0.05,0.517-0.156l0.221-0.148c0.428-0.286,0.542-0.863,0.257-1.291&#xd;&#xa;&#x9;&#x9;&#x9;c-0.285-0.428-0.863-0.542-1.29-0.257l-0.222,0.147c-0.427,0.286-0.542,0.863-0.257,1.291&#xd;&#xa;&#x9;&#x9;&#x9;C18.087,14.99,18.382,15.135,18.682,15.135z M24.208,11.442c0.178,0,0.357-0.051,0.516-0.157l0.222-0.148&#xd;&#xa;&#x9;&#x9;&#x9;c0.428-0.285,0.542-0.863,0.256-1.291c-0.285-0.427-0.862-0.542-1.29-0.256l-0.222,0.147c-0.427,0.286-0.542,0.863-0.256,1.29&#xd;&#xa;&#x9;&#x9;&#x9;C23.613,11.297,23.907,11.442,24.208,11.442z M21.444,13.289c0.178,0,0.357-0.051,0.517-0.157l0.221-0.147&#xd;&#xa;&#x9;&#x9;&#x9;c0.428-0.286,0.542-0.863,0.257-1.291c-0.285-0.428-0.863-0.542-1.291-0.257l-0.22,0.147c-0.428,0.286-0.543,0.863-0.257,1.291&#xd;&#xa;&#x9;&#x9;&#x9;C20.85,13.144,21.145,13.289,21.444,13.289z"/>
 </g>
 <g fill="#FFFFFF" stroke="#000000" transform="translate(16,16) scale(1.1) translate(-16,-16)" stroke-width="0.2">
  <path d="M28.149,7.034c-0.223-0.223-0.531-0.351-0.846-0.351H4.697c-0.315,0-0.624,0.127-0.846,0.351&#xd;&#xa;&#x9;&#x9;&#x9;C3.628,7.257,3.5,7.564,3.5,7.88v8.118c0,0.001,0,0.002,0,0.002v8.12c0,0.315,0.127,0.623,0.35,0.846&#xd;&#xa;&#x9;&#x9;&#x9;c0.223,0.224,0.531,0.351,0.846,0.351H16c0,0,0.001,0,0.001,0h11.302c0.319,0,0.62-0.124,0.846-0.351&#xd;&#xa;&#x9;&#x9;&#x9;c0.227-0.226,0.351-0.526,0.351-0.846V7.88C28.5,7.564,28.372,7.257,28.149,7.034z M14.804,22.924H5.893v-5.728h8.911V22.924z&#xd;&#xa;&#x9;&#x9;&#x9; M26.107,22.924h-8.911V16c0-0.315-0.128-0.623-0.35-0.846c-0.223-0.223-0.531-0.351-0.846-0.351H5.893V9.077h20.215V22.924z&#xd;&#xa;&#x9;&#x9;&#x9; M18.682,15.135c0.178,0,0.357-0.05,0.517-0.156l0.221-0.148c0.428-0.286,0.542-0.863,0.257-1.291&#xd;&#xa;&#x9;&#x9;&#x9;c-0.285-0.428-0.863-0.542-1.29-0.257l-0.222,0.147c-0.427,0.286-0.542,0.863-0.257,1.291&#xd;&#xa;&#x9;&#x9;&#x9;C18.087,14.99,18.382,15.135,18.682,15.135z M24.208,11.442c0.178,0,0.357-0.051,0.516-0.157l0.222-0.148&#xd;&#xa;&#x9;&#x9;&#x9;c0.428-0.285,0.542-0.863,0.256-1.291c-0.285-0.427-0.862-0.542-1.29-0.256l-0.222,0.147c-0.427,0.286-0.542,0.863-0.256,1.29&#xd;&#xa;&#x9;&#x9;&#x9;C23.613,11.297,23.907,11.442,24.208,11.442z M21.444,13.289c0.178,0,0.357-0.051,0.517-0.157l0.221-0.147&#xd;&#xa;&#x9;&#x9;&#x9;c0.428-0.286,0.542-0.863,0.257-1.291c-0.285-0.428-0.863-0.542-1.291-0.257l-0.22,0.147c-0.428,0.286-0.543,0.863-0.257,1.291&#xd;&#xa;&#x9;&#x9;&#x9;C20.85,13.144,21.145,13.289,21.444,13.289z"/>
 </g>
</svg>
