<?xml version='1.0' encoding='utf-8'?>
<!DOCTYPE svg PUBLIC '-//W3C//DTD SVG 1.1//EN' 'http://www.w3.org/Graphics/SVG/1.1/DTD/svg11.dtd'>
<!-- Generator: Adobe Illustrator 15.0.2, SVG Export Plug-In . SVG Version: 6.00 Build 0)  -->
<svg version="1.1" xmlns:xlink="http://www.w3.org/1999/xlink" xml:space="preserve" width="30px" height="30px" enable-background="new 0 0 30 30" x="0px" viewBox="0 0 30 30" y="0px" xmlns="http://www.w3.org/2000/svg">
 <g display="none" id="Layer_1">
  <path fill="none" stroke-miterlimit="10" stroke="#999999" d="M19.754,2.915&#xd;&#xa;&#x9;&#x9;c-0.353,2.153-1.939,4.066-4.76,4.066c-2.825,0-4.412-1.919-4.762-4.076c-4.829,1.899-8.257,6.58-8.257,12.083&#xd;&#xa;&#x9;&#x9;c0,7.183,5.823,13.007,13.006,13.007c7.184,0,13.007-5.824,13.007-13.007C27.987,9.494,24.57,4.821,19.754,2.915z" display="inline" stroke-width="3"/>
 </g>
 <g display="none" id="Layer_1_copy">
  <path fill="none" stroke-miterlimit="10" stroke="#000000" d="M19.754,2.915&#xd;&#xa;&#x9;&#x9;c-0.353,2.153-1.939,4.066-4.76,4.066c-2.825,0-4.412-1.919-4.762-4.076c-4.829,1.899-8.257,6.58-8.257,12.083&#xd;&#xa;&#x9;&#x9;c0,7.183,5.823,13.007,13.006,13.007c7.184,0,13.007-5.824,13.007-13.007C27.987,9.494,24.57,4.821,19.754,2.915z" display="inline" stroke-width="2"/>
 </g>
 <g id="Layer_3">
  <circle fill="none" stroke-miterlimit="10" cx="15" r="8.053" stroke="#999999" cy="15" stroke-width="3"/>
 </g>
 <g id="Layer_3_copy">
  <circle fill="none" stroke-miterlimit="10" cx="15" r="8.053" stroke="#000000" cy="15" stroke-width="2"/>
 </g>
 <g display="none" id="Layer_5">
  <circle fill="#EE1D3A" cx="15" r="2.053" cy="2.007" display="inline"/>
 </g>
</svg>
